<?xml version="1.0" standalone="no"?>
<!DOCTYPE svg PUBLIC "-//W3C//DTD SVG 20010904//EN"
 "http://www.w3.org/TR/2001/REC-SVG-20010904/DTD/svg10.dtd">
<svg version="1.0" xmlns="http://www.w3.org/2000/svg"
 width="900.000000pt" height="900.000000pt" viewBox="0 0 900.000000 900.000000"
 preserveAspectRatio="xMidYMid meet">
<metadata>
Created by potrace 1.10, written by Peter Selinger 2001-2011
</metadata>
<g transform="translate(0.000000,900.000000) scale(0.100000,-0.100000)"
fill="#513379" stroke="none">
<path d="M4370 8986 c0 -10 -36 -15 -166 -20 -177 -8 -267 -16 -429 -41 -195
-29 -243 -39 -430 -86 -44 -12 -98 -25 -120 -30 -22 -5 -49 -13 -60 -18 -11
-4 -74 -25 -140 -47 -66 -21 -124 -41 -130 -44 -5 -4 -32 -15 -60 -25 -27 -10
-68 -25 -90 -35 -22 -9 -55 -23 -74 -31 -44 -18 -318 -155 -396 -199 -69 -38
-300 -188 -361 -234 -23 -17 -52 -38 -64 -46 -33 -22 -193 -142 -206 -154 -6
-6 -33 -29 -60 -51 -236 -195 -512 -489 -709 -755 -81 -110 -242 -352 -253
-379 -3 -9 -24 -45 -45 -81 -38 -62 -177 -339 -206 -411 -7 -19 -20 -47 -27
-64 -7 -16 -22 -55 -34 -85 -11 -30 -25 -64 -30 -75 -17 -39 -93 -275 -124
-390 -10 -33 -21 -76 -27 -95 -5 -19 -14 -57 -20 -85 -5 -27 -17 -81 -25 -120
-19 -91 -41 -237 -53 -350 -26 -241 -31 -325 -31 -515 0 -191 4 -257 30 -515
23 -223 76 -487 143 -710 8 -27 22 -72 30 -100 19 -64 65 -194 77 -220 5 -11
25 -60 44 -110 56 -147 169 -384 242 -506 19 -31 34 -59 34 -62 0 -7 62 -110
71 -117 3 -3 23 -34 44 -70 35 -60 263 -371 314 -430 12 -14 45 -52 74 -85 58
-69 316 -328 395 -398 28 -25 85 -72 125 -104 39 -32 74 -61 77 -64 36 -41
413 -296 560 -378 125 -70 434 -219 520 -251 30 -11 64 -25 75 -29 11 -5 47
-19 80 -31 33 -12 67 -26 76 -30 9 -5 33 -12 53 -15 20 -4 38 -11 41 -15 3 -5
24 -11 48 -15 23 -4 47 -11 52 -15 6 -4 33 -13 60 -19 28 -7 77 -19 110 -27
310 -78 515 -109 904 -135 398 -26 984 43 1386 165 28 8 68 20 90 26 62 18
128 40 150 49 11 5 61 23 110 41 181 65 396 167 603 284 428 243 854 594 1172
965 30 35 60 69 67 76 6 7 60 77 120 156 124 164 263 371 318 474 21 39 48 86
60 105 23 38 130 256 165 335 11 28 25 59 30 70 5 11 19 45 30 75 11 30 24 64
29 75 5 11 19 49 31 85 12 36 26 74 30 85 5 11 18 54 30 95 11 41 25 89 30
105 15 50 48 195 65 285 8 47 20 105 25 130 10 49 26 185 40 345 10 115 11
599 1 633 -5 21 -14 12 -78 -75 -132 -182 -259 -311 -428 -437 -206 -154 -407
-256 -630 -320 -33 -9 -73 -21 -90 -25 -16 -5 -46 -12 -66 -15 l-36 -6 -11
-73 c-91 -575 -372 -1114 -813 -1556 -105 -104 -292 -262 -393 -331 -37 -25
-72 -50 -79 -55 -56 -49 -537 -295 -575 -295 -5 0 -23 -7 -38 -15 -16 -8 -36
-15 -45 -15 -9 0 -19 -3 -23 -7 -14 -14 -247 -83 -391 -116 -108 -25 -175 -35
-375 -58 -233 -25 -434 -22 -710 12 -139 17 -262 41 -405 81 -151 42 -242 71
-251 81 -4 4 -14 7 -21 7 -20 0 -242 96 -338 146 -162 84 -202 107 -315 182
-63 42 -119 80 -125 84 -5 5 -32 25 -60 46 -27 20 -55 42 -61 47 -6 6 -40 34
-75 64 -72 62 -261 248 -332 330 -175 198 -376 512 -477 746 -37 85 -51 121
-80 200 -18 50 -36 99 -40 110 -5 11 -19 52 -30 90 -12 39 -26 79 -31 90 -19
47 -65 246 -80 350 -24 173 -28 239 -28 470 -1 340 15 474 89 775 31 126 73
257 110 345 17 39 52 120 67 155 47 109 148 297 209 388 24 37 50 76 57 86 17
28 160 217 188 251 118 141 320 340 459 452 215 173 487 339 725 442 28 12 59
26 70 31 53 25 218 82 340 118 451 133 1015 156 1475 61 81 -17 211 -49 240
-59 14 -5 59 -18 100 -30 41 -12 84 -25 95 -30 11 -4 61 -22 110 -40 79 -29
115 -43 200 -80 53 -23 257 -125 310 -155 33 -18 77 -43 98 -55 21 -11 44 -25
50 -31 7 -5 48 -33 92 -62 44 -29 89 -59 100 -68 11 -9 67 -54 125 -100 310
-248 564 -572 717 -919 69 -155 78 -191 78 -305 0 -81 -5 -124 -19 -165 -68
-197 -235 -378 -491 -531 -113 -68 -186 -104 -340 -168 -56 -24 -135 -48 -265
-81 -312 -79 -730 -78 -1055 4 -33 8 -80 20 -105 26 -25 6 -56 15 -70 19 -14
5 -59 19 -100 31 -41 11 -83 25 -92 31 -10 5 -22 9 -28 9 -9 0 -165 58 -215
80 -131 58 -301 139 -370 178 -62 34 -301 177 -305 182 -3 3 -23 17 -45 30
-54 32 -376 272 -394 293 -7 10 -19 17 -26 17 -6 0 -38 -30 -71 -67 -32 -36
-63 -71 -69 -77 -5 -6 -35 -41 -65 -76 -30 -36 -57 -67 -60 -70 -3 -3 -36 -41
-74 -85 -215 -251 -202 -238 -227 -230 -11 4 -158 76 -327 160 -283 142 -308
153 -324 138 -10 -9 -20 -25 -24 -36 -12 -39 -116 -204 -215 -339 -22 -32 -28
-55 -38 -150 -7 -62 -11 -164 -9 -227 l3 -115 39 34 c67 60 217 233 297 343
21 29 46 63 57 77 l20 25 48 -25 c27 -14 81 -44 120 -67 39 -24 74 -43 77 -43
4 0 47 -25 97 -55 50 -30 94 -55 98 -55 4 0 43 -23 87 -49 44 -27 85 -46 91
-43 10 6 159 142 254 232 138 132 242 220 253 214 10 -6 106 -78 142 -106 42
-33 114 -83 190 -132 50 -32 109 -71 133 -87 23 -16 45 -29 48 -29 4 0 32 -15
63 -34 62 -38 268 -143 322 -165 43 -18 115 -48 156 -67 17 -8 37 -14 45 -14
8 0 18 -4 24 -8 9 -9 185 -67 289 -96 33 -9 76 -21 95 -27 19 -5 55 -14 80
-18 25 -5 92 -18 150 -30 222 -43 321 -53 615 -58 341 -6 562 9 910 61 55 8
134 20 175 26 305 44 642 164 910 324 47 27 90 54 95 58 6 5 33 25 60 45 152
113 287 262 389 431 31 51 56 95 56 98 0 3 9 26 21 52 31 73 36 84 52 132 40
118 77 339 77 464 0 156 -67 476 -131 621 -5 11 -18 45 -29 75 -81 210 -277
533 -477 785 -114 143 -139 171 -318 350 -155 156 -240 233 -360 326 -38 29
-76 59 -83 66 -7 7 -17 13 -20 13 -4 0 -18 10 -32 23 -34 31 -330 226 -405
267 -33 18 -89 49 -125 68 -136 74 -328 165 -415 197 -27 10 -54 21 -60 25 -5
4 -39 17 -75 29 -36 13 -74 27 -85 32 -55 24 -341 110 -465 140 -190 45 -288
63 -570 104 -25 4 -142 12 -260 19 -159 8 -214 15 -212 24 1 9 -20 12 -78 12
-61 0 -80 -3 -80 -14z"/>
</g>
</svg>
