<?xml version="1.0" encoding="UTF-8"?><svg id="Layer_2" xmlns="http://www.w3.org/2000/svg" viewBox="0 0 300.0065 301.5702"><g id="Components"><g id="ad3cf729-865c-44d6-ab21-cfcfbda4da7f_10"><path d="M294.5776,192.8785c-12.9095,44.8674-50.218,87.7767-102.6097,102.8887-68.4144,19.7337-140.4511-12.3955-173.5059-73.0987-3.8803-7.0835-7.1965-14.5704-9.9355-22.3926-22.5356-62.8723.8291-134.672,55.5801-172.6613C122.5473-15.2562,207.2006-6.798,258.801,43.1932c16.9545,16.5539,35.6665,43.1781,33.3469,68.5607-.9342,10.2608-5.5832,18.4215-5.5832,18.4215-.5123.9293-1.9564,3.5717-4.2837,6.5979-8.5789,11.2074-20.1372,16.2959-25.6591,18.6368-8.0502,3.4164-15.0359,4.8921-20.3812,5.7269-.4096.0756-.8007.1356-1.1922.1956-17.869,2.7123-41.9628,6.3046-71.0207-2.8659-15.448-4.8609-30.0977-12.8261-44.1538-24.1427-6.1493,5.6908-15.5174,14.37-16.9824,15.7134l-3.6099-2.161s-11.5184-6.5248-17.0584-9.6471c-.0735.097-.1298.1947-.2029.2917l-.0168-.0016c-.6688,1.0049-1.3709,2.0065-2.0895,2.9908-.3332.4848-.7001.9679-1.0834,1.451-.3315.4511-.6787.8849-1.0254,1.3188-.039.0822-.1113.1619-.1836.2416-.4026.5152-.8052,1.0295-1.2403,1.5258-2.5693,3.1297-5.3482,6.0942-8.3004,8.8632-.0337-.5423-.0678-1.0829-.0842-1.6408-.1709-4.8995.0583-9.7243.6853-14.4398.4741-.5776.9141-1.1577,1.3208-1.7394.3837-.4823.7342-.9671,1.0682-1.4683.1093-.1282.1849-.2588.2769-.3878,2.4937-3.5389,4.711-7.247,6.6521-11.1228l4.727,2.3647s7.3924,3.7081,13.607,6.8214c1.456.7296,2.8466,1.4231,4.0561,2.0361.2539-.2876.5086-.5924.7465-.8981.0181-.0148.0189-.032.0538-.0468.3447-.4001.7074-.8167,1.0891-1.2645.3073-.3352.6167-.7042.9256-1.0731.0904-.0953.1627-.1758.237-.2892,5.5766-6.5182,13.1822-15.3231,15.3276-17.5859,16.2409,13.6264,35.2684,24.4229,55.7823,29.6963,17.8106,5.0918,37.1496,3.9702,53.7733-4.2628,9.9129-4.9209,17.6081-10.8031,21.5368-19.3114,1.2526-3.3795,1.7826-7.0556,1.1294-10.417-1.2095-4.7278-4.4004-11.5155-7.3136-16.2302-12.8955-20.8725-35.0473-35.1488-58.5336-42.5273C112.5535,27.7272,40.1097,86.3943,45.3724,159.8364c.1894,2.6761.5287,6.2035,1.2354,10.343,0,0,.3081,1.8397.6857,3.6506,1.3631,6.625,6.8386,21.7649,9.8841,27.6159,25.7934,49.6519,87.248,72.6509,140.9387,46.97,29.115-13.416,52.114-42.137,56.274-75.0337,5.524-1.0583,13.5167-3.2924,21.9888-8.3669,12.6695-7.5888,19.7752-17.5547,23.1411-23.0935,1.0123,12.5631.9083,30.6215-4.9427,50.9567Z" style="fill:#4f2c8f;"/><path d="M215.2755,191.0504c-2.0028,9.15.3643,12.6295,4.0473,13.4356,3.683.8061,7.2872-1.3663,9.29-10.5163,2.0028-9.15-.3643-12.6295-4.0473-13.4356-3.683-.8061-7.2872,1.3663-9.29,10.5163Z" style="fill:#20B2AA;"/><path d="M159.5509,192.51c0,9.3666,3.0563,12.2595,6.8265,12.2595s6.8265-2.8929,6.8265-12.2595-3.0563-12.2595-6.8265-12.2595-6.8265,2.8929-6.8265,12.2595Z" style="fill:#20B2AA;"/><path d="M171.9405,239.2199c-5.2477,0-11.5272-1.2596-16.636-5.9798-2.8299-2.6145-4.9995-6.1047-6.2748-10.0896l8.6036-2.7534c.8117,2.5396,2.0916,4.628,3.8023,6.2092,6.6463,6.1421,17.7224,2.588,18.1907,2.435,1.6155-.5307,3.1717-1.2674,4.628-2.1915l4.8356,7.6296c-2.0854,1.3221-4.319,2.3788-6.6385,3.1421-.8538.281-5.1431,1.5984-10.5111,1.5984Z" style="fill:#20B2AA;"/></g></g></svg>